<svg fill="none" height="512" viewBox="0 0 36 36" width="512" xmlns="http://www.w3.org/2000/svg"><g id="36 Multicolor / Flag / mc_36_flag_uzbekistan"><g id="mc_36_flag_Uzbekistan"><path id="Path" d="m.850005 12.52c-.564706 1.7718-.85144095 3.6204-.84999959 5.48-.00144136 1.8596.28529359 3.7082.84999959 5.48l17.149995.78 17.15-.78c.5647-1.7718.8514-3.6204.85-5.48.0014-1.8596-.2853-3.7082-.85-5.48l-17.15-.78z" fill="#f0f0f0"/><path id="Shape" clip-rule="evenodd" d="m18 11.74 17.15.78v.01l.42 1.57h-35.140007l.42-1.58zm-17.150007 11.73-.42-1.57h35.140007c-.1163.5294-.2564 1.0532-.42 1.57l-17.15.78z" fill="#d80027" fill-rule="evenodd"/><path id="Path_2" d="m18 36c7.8316.0019 14.7657-5.0602 17.15-12.52h-34.299994c2.384284 7.4598 9.318394 12.5219 17.149994 12.52z" fill="#1eb53a"/><path id="Path_3" d="m18 .00000056c-7.8316-.00193968-14.76571 5.06016944-17.149994 12.51999944h34.299994c-2.3843-7.45983-9.3184-12.52193912-17.15-12.51999944z" fill="#0099b5"/><g id="Group"><path id="Path_4" d="m8.23 7.43992c0-1.69 1.17-3.1 2.77-3.44-.24-.05-.5-.08-.75-.08-1.94 0-3.52 1.58-3.52 3.52s1.58 3.51998 3.52 3.51998c.26 0 .5-.03.75-.08-1.58-.35-2.77-1.74998-2.77-3.43998z" fill="#f0f0f0"/><path id="B" d="m13.07 9.04004.24.73h.77l-.62.44996.24.73-.62-.45-.62.45.24-.73-.62-.44996h.77z" fill="#f0f0f0"/><g id="B-link"><path id="B_2" d="m15.54 9.04004.24.73h.77l-.62.44996.24.73-.62-.45-.62.45.24-.73-.62-.44996h.77z" fill="#f0f0f0"/></g><path id="Path_5" d="m18 9.04004.24.73h.76l-.62.44996.24.73-.62-.45-.62.45.24-.73-.62-.44996h.77z" fill="#f0f0f0"/><g id="B-link_2"><path id="B_3" d="m20.46 9.04004.24.73h.77l-.62.44996.24.73-.62-.45-.62.45.24-.73-.62-.44996h.77z" fill="#f0f0f0"/></g><g id="B-link_3"><path id="B_4" d="m22.92 9.04004.24.73h.77l-.62.44996.24.73-.62-.45-.62.45.24-.73-.62-.44996h.77z" fill="#f0f0f0"/></g><g id="B-link_4"><path id="B_5" d="m15.54 6.47998.24.73h.77l-.62.45.24.73-.62-.45-.62.45.24-.73-.62-.45h.77z" fill="#f0f0f0"/></g><path id="Path_6" d="m18 6.47998.24.73h.76l-.62.45.24.73-.62-.45-.62.45.24-.73-.62-.46h.77z" fill="#f0f0f0"/><g id="B-link_5"><path id="B_6" d="m20.46 6.47998.24.73h.77l-.62.45.24.73-.62-.45-.62.45.24-.73-.62-.45h.77z" fill="#f0f0f0"/></g><g id="B-link_6"><path id="B_7" d="m22.92 6.47998.24.73h.77l-.62.45.24.73-.62-.45-.62.45.24-.73-.62-.45h.77z" fill="#f0f0f0"/></g><path id="Path_7" d="m18 3.91992.24.73h.76l-.62.45.24.73-.62-.45-.62.45.24-.73-.62-.45h.77z" fill="#f0f0f0"/><g id="B-link_7"><path id="B_8" d="m20.46 3.91992.24.73h.77l-.62.45.24.73-.62-.45-.62.45.24-.73-.62-.45h.77z" fill="#f0f0f0"/></g><g id="B-link_8"><path id="B_9" d="m22.92 3.91992.24.73h.77l-.62.45.24.73-.62-.45-.62.45.24-.73-.62-.45h.77z" fill="#f0f0f0"/></g></g></g></g></svg>